<svg xmlns="http://www.w3.org/2000/svg" viewBox="0 0 512 512">
<defs>
<radialGradient id="bg" cx="50%" cy="42%" r="66%"><stop stop-color="#0a2b18"/><stop offset="1" stop-color="#050909"/></radialGradient>
<linearGradient id="a" x1="0" y1="0" x2="1" y2="1"><stop stop-color="#c8ffd8"/><stop offset=".48" stop-color="#34dc72"/><stop offset="1" stop-color="#087538"/></linearGradient>
<linearGradient id="m" x1="0" y1="0" x2="1" y2="1"><stop stop-color="#f7ffff"/><stop offset="1" stop-color="#c8ffd8"/></linearGradient>
<filter id="sh" x="-30%" y="-30%" width="160%" height="160%"><feGaussianBlur in="SourceAlpha" stdDeviation="8"/><feOffset dy="6"/><feComponentTransfer><feFuncA type="linear" slope=".42"/></feComponentTransfer><feMerge><feMergeNode/><feMergeNode in="SourceGraphic"/></feMerge></filter>
</defs>
<rect width="512" height="512" rx="74" fill="#090d0c"/>
<g filter="url(#sh)">
<path d="M256 18 286 72 256 116 226 72Z" fill="url(#a)" stroke="#c8ffd8" stroke-width="5"/>
<path d="M494 256 440 286 396 256 440 226Z" fill="url(#a)" stroke="#c8ffd8" stroke-width="5"/>
<path d="M256 494 226 440 256 396 286 440Z" fill="url(#a)" stroke="#c8ffd8" stroke-width="5"/>
<path d="M18 256 72 226 116 256 72 286Z" fill="url(#a)" stroke="#c8ffd8" stroke-width="5"/>
<circle cx="256" cy="256" r="171" fill="url(#bg)" stroke="url(#a)" stroke-width="13"/>
<circle cx="256" cy="256" r="140" fill="none" stroke="#34dc72" stroke-width="5" stroke-dasharray="62 20" opacity=".92"/>
<circle cx="256" cy="256" r="119" fill="none" stroke="#c8ffd8" stroke-width="2" opacity=".2"/>
<path d="m256 92 6 13 13 6-13 6-6 13-6-13-13-6 13-6Z" fill="#c8ffd8" opacity=".78"/>
<path d="m145 150 4 9 9 4-9 4-4 9-4-9-9-4 9-4Z" fill="#34dc72" opacity=".72"/>
<path d="m367 150 4 9 9 4-9 4-4 9-4-9-9-4 9-4Z" fill="#34dc72" opacity=".72"/>

<path d="M197 286c-34-6-45-36-31-62 16-30 56-35 85-13 26 20 67 13 78-15 9-23-6-45-32-47-23-2-37 11-43 27" fill="none" stroke="#38dd72" stroke-width="29" stroke-linecap="round" stroke-linejoin="round"/>
<circle cx="299" cy="161" r="5" fill="#07140c"/>
<circle cx="213" cy="302" r="19" fill="#ef4f36" stroke="#ffd179" stroke-width="5"/>
<path d="M213 283c2-14 10-22 23-25" fill="none" stroke="#76dd66" stroke-width="7" stroke-linecap="round"/>
</g>
</svg>