<svg xmlns="http://www.w3.org/2000/svg" viewBox="0 0 512 512">
<defs>
<radialGradient id="bg" cx="50%" cy="42%" r="66%"><stop stop-color="#0c2731"/><stop offset="1" stop-color="#050909"/></radialGradient>
<linearGradient id="a" x1="0" y1="0" x2="1" y2="1"><stop stop-color="#d6f7ff"/><stop offset=".48" stop-color="#49b7d6"/><stop offset="1" stop-color="#1f6780"/></linearGradient>
<linearGradient id="m" x1="0" y1="0" x2="1" y2="1"><stop stop-color="#f8ffff"/><stop offset="1" stop-color="#d6f7ff"/></linearGradient>
<filter id="sh" x="-30%" y="-30%" width="160%" height="160%"><feGaussianBlur in="SourceAlpha" stdDeviation="8"/><feOffset dy="6"/><feComponentTransfer><feFuncA type="linear" slope=".42"/></feComponentTransfer><feMerge><feMergeNode/><feMergeNode in="SourceGraphic"/></feMerge></filter>
</defs>
<g filter="url(#sh)">
<path d="M256 18 286 72 256 116 226 72Z" fill="url(#a)" stroke="#d6f7ff" stroke-width="5"/>
<path d="M494 256 440 286 396 256 440 226Z" fill="url(#a)" stroke="#d6f7ff" stroke-width="5"/>
<path d="M256 494 226 440 256 396 286 440Z" fill="url(#a)" stroke="#d6f7ff" stroke-width="5"/>
<path d="M18 256 72 226 116 256 72 286Z" fill="url(#a)" stroke="#d6f7ff" stroke-width="5"/>
<circle cx="256" cy="256" r="171" fill="url(#bg)" stroke="url(#a)" stroke-width="13"/>
<circle cx="256" cy="256" r="140" fill="none" stroke="#49b7d6" stroke-width="5" stroke-dasharray="62 20" opacity=".92"/>
<circle cx="256" cy="256" r="119" fill="none" stroke="#d6f7ff" stroke-width="2" opacity=".2"/>
<path d="M173 190h108v79h-63l-30 26v-26h-15Z" fill="#1b586c" stroke="#cdf4ff" stroke-width="7"/><path d="M239 245h100v75h-15v25l-28-25h-57Z" fill="#266f84" stroke="#aeeeff" stroke-width="7"/><path d="M196 216h61M264 272h50M264 293h37" stroke="#aeeeff" stroke-width="6" stroke-linecap="round"/>
</g>
</svg>