<svg xmlns="http://www.w3.org/2000/svg" viewBox="0 0 512 512">
<defs>
<radialGradient id="bg" cx="50%" cy="42%" r="66%"><stop stop-color="#102d13"/><stop offset="1" stop-color="#050909"/></radialGradient>
<linearGradient id="a" x1="0" y1="0" x2="1" y2="1"><stop stop-color="#d8ffd0"/><stop offset=".48" stop-color="#63bd57"/><stop offset="1" stop-color="#2e6b28"/></linearGradient>
<linearGradient id="m" x1="0" y1="0" x2="1" y2="1"><stop stop-color="#f8ffff"/><stop offset="1" stop-color="#d8ffd0"/></linearGradient>
<filter id="sh" x="-30%" y="-30%" width="160%" height="160%"><feGaussianBlur in="SourceAlpha" stdDeviation="8"/><feOffset dy="6"/><feComponentTransfer><feFuncA type="linear" slope=".42"/></feComponentTransfer><feMerge><feMergeNode/><feMergeNode in="SourceGraphic"/></feMerge></filter>
</defs>
<g filter="url(#sh)">
<path d="M256 18 286 72 256 116 226 72Z" fill="url(#a)" stroke="#d8ffd0" stroke-width="5"/>
<path d="M494 256 440 286 396 256 440 226Z" fill="url(#a)" stroke="#d8ffd0" stroke-width="5"/>
<path d="M256 494 226 440 256 396 286 440Z" fill="url(#a)" stroke="#d8ffd0" stroke-width="5"/>
<path d="M18 256 72 226 116 256 72 286Z" fill="url(#a)" stroke="#d8ffd0" stroke-width="5"/>
<circle cx="256" cy="256" r="171" fill="url(#bg)" stroke="url(#a)" stroke-width="13"/>
<circle cx="256" cy="256" r="140" fill="none" stroke="#63bd57" stroke-width="5" stroke-dasharray="62 20" opacity=".92"/>
<circle cx="256" cy="256" r="119" fill="none" stroke="#d8ffd0" stroke-width="2" opacity=".2"/>

<circle cx="256" cy="256" r="82" fill="#0e321c" stroke="#c8f4ca" stroke-width="7"/>
<circle cx="256" cy="256" r="56" fill="none" stroke="#63d47a" stroke-width="4"/>
<circle cx="256" cy="256" r="28" fill="none" stroke="#63d47a" stroke-width="4"/>
<path d="M256 174v164M174 256h164" stroke="#5fc875" stroke-width="3" opacity=".7"/>
<path d="M256 256 324 214A82 82 0 0 1 338 256Z" fill="#7dff93" opacity=".35"/>
<circle cx="308" cy="218" r="9" fill="#ff5c4a" stroke="#ffd3cc" stroke-width="3"/><circle cx="216" cy="297" r="7" fill="#ff5c4a" stroke="#ffd3cc" stroke-width="3"/>
</g>
</svg>