<svg xmlns="http://www.w3.org/2000/svg" viewBox="0 0 512 512">
<defs>
<radialGradient id="bg" cx="50%" cy="42%" r="66%"><stop stop-color="#331908"/><stop offset="1" stop-color="#050909"/></radialGradient>
<linearGradient id="a" x1="0" y1="0" x2="1" y2="1"><stop stop-color="#ffd3a0"/><stop offset=".48" stop-color="#f08d26"/><stop offset="1" stop-color="#89440d"/></linearGradient>
<linearGradient id="m" x1="0" y1="0" x2="1" y2="1"><stop stop-color="#f8ffff"/><stop offset="1" stop-color="#ffd3a0"/></linearGradient>
<filter id="sh" x="-30%" y="-30%" width="160%" height="160%"><feGaussianBlur in="SourceAlpha" stdDeviation="8"/><feOffset dy="6"/><feComponentTransfer><feFuncA type="linear" slope=".42"/></feComponentTransfer><feMerge><feMergeNode/><feMergeNode in="SourceGraphic"/></feMerge></filter>
</defs>
<g filter="url(#sh)">
<path d="M256 18 286 72 256 116 226 72Z" fill="url(#a)" stroke="#ffd3a0" stroke-width="5"/>
<path d="M494 256 440 286 396 256 440 226Z" fill="url(#a)" stroke="#ffd3a0" stroke-width="5"/>
<path d="M256 494 226 440 256 396 286 440Z" fill="url(#a)" stroke="#ffd3a0" stroke-width="5"/>
<path d="M18 256 72 226 116 256 72 286Z" fill="url(#a)" stroke="#ffd3a0" stroke-width="5"/>
<circle cx="256" cy="256" r="171" fill="url(#bg)" stroke="url(#a)" stroke-width="13"/>
<circle cx="256" cy="256" r="140" fill="none" stroke="#f08d26" stroke-width="5" stroke-dasharray="62 20" opacity=".92"/>
<circle cx="256" cy="256" r="119" fill="none" stroke="#ffd3a0" stroke-width="2" opacity=".2"/>

<path d="M221 179h70l25 68-20 60h-80l-20-60Z" fill="#4b3429" stroke="#ffe0b6" stroke-width="7"/>
<rect x="187" y="211" width="37" height="101" rx="13" fill="#79513a" stroke="#eac49e" stroke-width="5"/>
<rect x="288" y="211" width="37" height="101" rx="13" fill="#79513a" stroke="#eac49e" stroke-width="5"/>
<path d="m196 315 19 58 18-58M279 315l18 58 19-58" fill="#ff8b25" stroke="#ffd16d" stroke-width="5"/>
<path d="M244 208h24v66h-24Z" fill="#d4e1e8" opacity=".7"/>
</g>
</svg>