<svg xmlns="http://www.w3.org/2000/svg" viewBox="0 0 512 512">
<defs>
<radialGradient id="bg" cx="50%" cy="42%" r="66%"><stop stop-color="#2b0e38"/><stop offset="1" stop-color="#050909"/></radialGradient>
<linearGradient id="a" x1="0" y1="0" x2="1" y2="1"><stop stop-color="#f0d0ff"/><stop offset=".48" stop-color="#c04cff"/><stop offset="1" stop-color="#6c208c"/></linearGradient>
<linearGradient id="m" x1="0" y1="0" x2="1" y2="1"><stop stop-color="#f8ffff"/><stop offset="1" stop-color="#f0d0ff"/></linearGradient>
<filter id="sh" x="-30%" y="-30%" width="160%" height="160%"><feGaussianBlur in="SourceAlpha" stdDeviation="8"/><feOffset dy="6"/><feComponentTransfer><feFuncA type="linear" slope=".42"/></feComponentTransfer><feMerge><feMergeNode/><feMergeNode in="SourceGraphic"/></feMerge></filter>
</defs>
<g filter="url(#sh)">
<path d="M256 18 286 72 256 116 226 72Z" fill="url(#a)" stroke="#f0d0ff" stroke-width="5"/>
<path d="M494 256 440 286 396 256 440 226Z" fill="url(#a)" stroke="#f0d0ff" stroke-width="5"/>
<path d="M256 494 226 440 256 396 286 440Z" fill="url(#a)" stroke="#f0d0ff" stroke-width="5"/>
<path d="M18 256 72 226 116 256 72 286Z" fill="url(#a)" stroke="#f0d0ff" stroke-width="5"/>
<circle cx="256" cy="256" r="171" fill="url(#bg)" stroke="url(#a)" stroke-width="13"/>
<circle cx="256" cy="256" r="140" fill="none" stroke="#c04cff" stroke-width="5" stroke-dasharray="62 20" opacity=".92"/>
<circle cx="256" cy="256" r="119" fill="none" stroke="#f0d0ff" stroke-width="2" opacity=".2"/>

<circle cx="256" cy="256" r="74" fill="#24123a" stroke="#e5c4ff" stroke-width="7"/>
<circle cx="256" cy="256" r="55" fill="none" stroke="#c561ff" stroke-width="8" stroke-dasharray="35 13"/>
<path d="m270 184-45 71h31l-15 73 48-83h-31Z" fill="url(#a)" stroke="#f2ddff" stroke-width="5" stroke-linejoin="round"/>
<path d="M166 256h32M314 256h32M256 166v24M256 322v24" stroke="#d995ff" stroke-width="7" stroke-linecap="round"/>
</g>
</svg>