<svg xmlns="http://www.w3.org/2000/svg" viewBox="0 0 512 512">
<defs>
<radialGradient id="bg" cx="50%" cy="42%" r="66%"><stop stop-color="#31260c"/><stop offset="1" stop-color="#050909"/></radialGradient>
<linearGradient id="a" x1="0" y1="0" x2="1" y2="1"><stop stop-color="#ffecb0"/><stop offset=".48" stop-color="#d1a044"/><stop offset="1" stop-color="#795719"/></linearGradient>
<linearGradient id="m" x1="0" y1="0" x2="1" y2="1"><stop stop-color="#f8ffff"/><stop offset="1" stop-color="#ffecb0"/></linearGradient>
<filter id="sh" x="-30%" y="-30%" width="160%" height="160%"><feGaussianBlur in="SourceAlpha" stdDeviation="8"/><feOffset dy="6"/><feComponentTransfer><feFuncA type="linear" slope=".42"/></feComponentTransfer><feMerge><feMergeNode/><feMergeNode in="SourceGraphic"/></feMerge></filter>
</defs>
<g filter="url(#sh)">
<path d="M256 18 286 72 256 116 226 72Z" fill="url(#a)" stroke="#ffecb0" stroke-width="5"/>
<path d="M494 256 440 286 396 256 440 226Z" fill="url(#a)" stroke="#ffecb0" stroke-width="5"/>
<path d="M256 494 226 440 256 396 286 440Z" fill="url(#a)" stroke="#ffecb0" stroke-width="5"/>
<path d="M18 256 72 226 116 256 72 286Z" fill="url(#a)" stroke="#ffecb0" stroke-width="5"/>
<circle cx="256" cy="256" r="171" fill="url(#bg)" stroke="url(#a)" stroke-width="13"/>
<circle cx="256" cy="256" r="140" fill="none" stroke="#d1a044" stroke-width="5" stroke-dasharray="62 20" opacity=".92"/>
<circle cx="256" cy="256" r="119" fill="none" stroke="#ffecb0" stroke-width="2" opacity=".2"/>
<path d="M180 234h152v103H180Z" fill="#875121" stroke="#ffdd93" stroke-width="7"/><path d="M180 234c0-35 27-63 76-63s76 28 76 63Z" fill="#b9782d" stroke="#ffe4a3" stroke-width="7"/><rect x="240" y="252" width="32" height="39" rx="7" fill="#f0c052"/><circle cx="256" cy="264" r="5" fill="#6c461a"/>
</g>
</svg>