<svg xmlns="http://www.w3.org/2000/svg" viewBox="0 0 512 512">
<defs>
<radialGradient id="bg" cx="50%" cy="42%" r="66%"><stop stop-color="#0b2832"/><stop offset="1" stop-color="#050909"/></radialGradient>
<linearGradient id="a" x1="0" y1="0" x2="1" y2="1"><stop stop-color="#d5f8ff"/><stop offset=".48" stop-color="#4dc8ef"/><stop offset="1" stop-color="#1b6d89"/></linearGradient>
<linearGradient id="m" x1="0" y1="0" x2="1" y2="1"><stop stop-color="#f8ffff"/><stop offset="1" stop-color="#d5f8ff"/></linearGradient>
<filter id="sh" x="-30%" y="-30%" width="160%" height="160%"><feGaussianBlur in="SourceAlpha" stdDeviation="8"/><feOffset dy="6"/><feComponentTransfer><feFuncA type="linear" slope=".42"/></feComponentTransfer><feMerge><feMergeNode/><feMergeNode in="SourceGraphic"/></feMerge></filter>
</defs>
<g filter="url(#sh)">
<path d="M256 18 286 72 256 116 226 72Z" fill="url(#a)" stroke="#d5f8ff" stroke-width="5"/>
<path d="M494 256 440 286 396 256 440 226Z" fill="url(#a)" stroke="#d5f8ff" stroke-width="5"/>
<path d="M256 494 226 440 256 396 286 440Z" fill="url(#a)" stroke="#d5f8ff" stroke-width="5"/>
<path d="M18 256 72 226 116 256 72 286Z" fill="url(#a)" stroke="#d5f8ff" stroke-width="5"/>
<circle cx="256" cy="256" r="171" fill="url(#bg)" stroke="url(#a)" stroke-width="13"/>
<circle cx="256" cy="256" r="140" fill="none" stroke="#4dc8ef" stroke-width="5" stroke-dasharray="62 20" opacity=".92"/>
<circle cx="256" cy="256" r="119" fill="none" stroke="#d5f8ff" stroke-width="2" opacity=".2"/>
<path d="m205 326 48-97" stroke="#5ee6ff" stroke-width="17" stroke-linecap="round"/><path d="m307 326-48-97" stroke="#f06d62" stroke-width="17" stroke-linecap="round"/><path d="m199 338 21-42M313 338l-21-42" stroke="#d6d7dc" stroke-width="13" stroke-linecap="round"/><circle cx="256" cy="207" r="22" fill="#eee" opacity=".35"/>
</g>
</svg>